<?xml version="1.0" encoding="utf-8"?>
<!-- Generator: Adobe Illustrator 19.0.0, SVG Export Plug-In . SVG Version: 6.00 Build 0)  -->
<svg version="1.1" id="Layer_1" xmlns="http://www.w3.org/2000/svg" xmlns:xlink="http://www.w3.org/1999/xlink" x="0px" y="0px"
	 width="1004.7px" height="119.5px" viewBox="-19 -9.5 1004.7 119.5" style="enable-background:new -19 -9.5 1004.7 119.5;"
	 xml:space="preserve">
<style type="text/css">
	.st0{fill:#FFFFFF;stroke:#FFFFFF;stroke-miterlimit:10;}
	.st1{fill:#FFFFFF;stroke:#FFFFFF;stroke-width:2;stroke-miterlimit:10;}
</style>
<path id="XMLID_68_" class="st0" d="M77.5,142.5h10.8l-30.6,76.2h-2.4L30.5,157l-25,61.6H3.2l-30.6-76.1h10.9l20.9,52.3l21-52.3
	h10.3l21.1,52.3L77.5,142.5z"/>
<path id="XMLID_70_" class="st0" d="M137.8,141.4c11.7,0,21.5,3.7,29.3,11.1c7.8,7.4,11.7,16.7,11.7,27.9s-3.9,20.4-11.8,27.8
	c-7.9,7.3-17.8,11-29.7,11c-11.4,0-20.9-3.7-28.6-11c-7.6-7.3-11.4-16.5-11.4-27.5c0-11.3,3.8-20.7,11.5-28.1
	C116.4,145.1,126.1,141.4,137.8,141.4z M138.3,151.7c-8.7,0-15.8,2.7-21.4,8.1c-5.6,5.4-8.4,12.4-8.4,20.8c0,8.2,2.8,15,8.4,20.4
	c5.6,5.4,12.6,8.1,21,8.1c8.5,0,15.5-2.8,21.2-8.3s8.5-12.4,8.5-20.7c0-8-2.8-14.8-8.5-20.3C153.5,154.5,146.5,151.7,138.3,151.7z"
	/>
<path id="XMLID_73_" class="st0" d="M200.5,142.5h10.9v65.9h34.1v9.9h-45V142.5z"/>
<path id="XMLID_75_" class="st0" d="M263.6,218.3v-75.8h19c7.7,0,13.8,1.9,18.3,5.7c4.5,3.8,6.8,8.9,6.8,15.4
	c0,4.4-1.1,8.2-3.3,11.5c-2.2,3.2-5.4,5.6-9.5,7.2c2.4,1.6,4.8,3.8,7.1,6.5c2.3,2.8,5.6,7.5,9.8,14.4c2.6,4.3,4.8,7.5,6.3,9.7l4,5.4
	h-12.9l-3.3-5c-0.1-0.2-0.3-0.5-0.7-0.9l-2.1-3l-3.4-5.5l-3.6-5.9c-2.2-3.1-4.3-5.6-6.2-7.4c-1.9-1.8-3.5-3.2-5.1-4
	c-1.5-0.8-4-1.2-7.6-1.2h-2.8v33L263.6,218.3L263.6,218.3z M277.7,151.7h-3.3v23.9h4.1c5.5,0,9.3-0.5,11.3-1.4
	c2-0.9,3.6-2.4,4.8-4.3c1.2-1.9,1.7-4.1,1.7-6.5c0-2.4-0.6-4.5-1.9-6.5c-1.3-1.9-3-3.3-5.3-4.1C286.8,152.1,283,151.7,277.7,151.7z"
	/>
<path id="XMLID_78_" class="st0" d="M338.9,218.2v-75.7h25.6c10.3,0,18.5,1.5,24.5,4.6c6,3.1,10.8,7.6,14.3,13.6s5.3,12.6,5.3,19.6
	c0,5.1-1,9.9-2.9,14.5c-2,4.6-4.7,8.7-8.4,12.2c-3.7,3.6-8,6.3-12.9,8.2c-2.9,1.1-5.5,1.9-7.9,2.3c-2.4,0.4-6.9,0.6-13.7,0.6h-23.9
	V218.2z M363.3,152.2h-13.6v56.4h13.9c5.4,0,9.6-0.4,12.6-1.1c3-0.7,5.5-1.7,7.5-2.8s3.8-2.5,5.5-4.2c5.4-5.4,8-12.3,8-20.6
	c0-8.1-2.8-14.8-8.2-19.9c-2-1.9-4.3-3.5-7-4.7c-2.6-1.2-5.1-2-7.5-2.4C372.3,152.4,368.5,152.2,363.3,152.2z"/>
<path id="XMLID_81_" class="st0" d="M469.8,142.5h10.8v75.8h-10.9v-75.8H469.8z"/>
<path id="XMLID_83_" class="st0" d="M566,142.5h10.3v75.8H567l-50.7-58.4v58.4h-10.2v-75.8h8.8l51.1,58.9L566,142.5L566,142.5z"/>
<path id="XMLID_85_" class="st0" d="M705.4,200.7v11.9c-8,4.3-17.1,6.5-27.6,6.5c-8.5,0-15.6-1.7-21.5-5.1s-10.6-8.1-14-14.1
	s-5.2-12.4-5.2-19.4c0-11,3.9-20.3,11.8-27.8c7.9-7.5,17.6-11.3,29.1-11.3c8,0,16.8,2.1,26.5,6.2v11.7c-8.9-5.1-17.5-7.6-26-7.6
	c-8.7,0-15.9,2.7-21.6,8.2c-5.7,5.5-8.6,12.3-8.6,20.6s2.8,15.2,8.5,20.5s12.9,8,21.7,8C687.7,209.2,696.7,206.4,705.4,200.7z"/>
<path id="XMLID_87_" class="st0" d="M779.9,142.5h10.9v43c0,5.8-0.4,10.2-1.3,13.2c-0.9,3-1.9,5.4-3.1,7.4c-1.2,2-2.8,3.7-4.6,5.3
	c-6,5.2-13.9,7.8-23.6,7.8c-9.9,0-17.8-2.6-23.8-7.7c-1.8-1.6-3.3-3.4-4.6-5.3c-1.2-2-2.3-4.4-3.1-7.2c-0.8-2.9-1.2-7.3-1.2-13.5
	v-43h10.9v43c0,7.1,0.8,12.1,2.4,14.9s4.1,5,7.4,6.7c3.3,1.7,7.3,2.5,11.8,2.5c6.4,0,11.7-1.7,15.7-5c2.1-1.8,3.7-3.9,4.6-6.4
	c0.9-2.5,1.4-6.7,1.4-12.6v-43.1H779.9z"/>
<path id="XMLID_89_" class="st0" d="M839.8,218.3h-25.7v-75.8H834c6.3,0,11.1,0.8,14.7,2.5c3.5,1.7,6.2,4,8,6.9s2.8,6.4,2.8,10.2
	c0,7.5-3.9,12.8-11.6,16c5.5,1,9.9,3.3,13.2,6.8s4.9,7.7,4.9,12.6c0,3.9-1,7.3-3,10.4c-2,3-4.9,5.5-8.8,7.4
	C850.4,217.4,845.6,218.3,839.8,218.3z M834.3,152.2H825V175h7.2c5.8,0,9.9-1.1,12.3-3.3c2.4-2.2,3.7-5.1,3.7-8.6
	C848.2,155.8,843.6,152.2,834.3,152.2z M835.1,184.6H825v24h10.7c5.9,0,10-0.5,12.1-1.4c2.1-0.9,3.8-2.4,5.1-4.3
	c1.3-2,1.9-4.1,1.9-6.3c0-2.3-0.7-4.4-2-6.3c-1.4-1.9-3.3-3.3-5.8-4.3C844.5,185.1,840.5,184.6,835.1,184.6z"/>
<path id="XMLID_93_" class="st0" d="M885,142.5h43v9.7h-32.1v23.1h31v9.7h-31v23.6h33.2v9.7h-44v-75.8H885z"/>
<path class="st1" d="M-17.3,15.5c-0.5-1.6,0.5-2.7,2-2.7H-2c0.9,0,1.8,0.8,2,1.6l9.7,38.3h0.5l17.5-39.8c0.3-0.7,1-1.2,1.9-1.2h2
	c1,0,1.7,0.6,1.9,1.2l17.5,39.8h0.5l9.7-38.3c0.2-0.8,1.1-1.6,2-1.6h13.2c1.6,0,2.5,1.1,2,2.7l-21.4,76c-0.2,0.9-1.1,1.6-2,1.6h-1.8
	c-0.8,0-1.6-0.6-1.9-1.2L30.8,45.5h-0.3L9.9,91.8C9.5,92.5,8.7,93,7.9,93H6.1c-0.9,0-1.8-0.7-2-1.6L-17.3,15.5z"/>
<path class="st1" d="M136.6,11.6c22.6,0,40.7,18.2,40.7,40.8c0,22.6-18.1,40.6-40.7,40.6S96,75.1,96,52.4
	C96,29.8,114,11.6,136.6,11.6z M136.6,75c12.4,0,22.6-10.2,22.6-22.5c0-12.4-10.2-22.7-22.6-22.7c-12.3,0-22.5,10.3-22.5,22.7
	C114.1,64.8,124.3,75,136.6,75z"/>
<path class="st1" d="M202.4,14.9c0-1.1,0.9-2.1,2.1-2.1h33.8c13.6,0,24.7,11,24.7,24.4c0,10.4-6.9,18.8-16.7,22.7l15.5,28.7
	c0.8,1.5,0,3.3-1.9,3.3h-15c-0.9,0-1.6-0.6-1.8-1l-15-30h-7.8v28.8c0,1.1-1,2.1-2.1,2.1h-13.5c-1.2,0-2.1-1-2.1-2.1V14.9z
	 M236.8,46.6c4.6,0,8.6-4.3,8.6-9s-4-8.6-8.6-8.6h-16.7v17.6H236.8z"/>
<path class="st1" d="M289.4,14.9c0-1.1,0.9-2.1,2.1-2.1H305c1.1,0,2.1,1,2.1,2.1v60.4h26.9c1.2,0,2.1,1,2.1,2.1v12.3
	c0,1.1-0.9,2.1-2.1,2.1h-42.5c-1.2,0-2.1-1-2.1-2.1V14.9z"/>
<path class="st1" d="M358.5,14.9c0-1.1,0.9-2.1,2-2.1h27.6c21.8,0,39.7,17.8,39.7,39.5c0,21.9-17.9,39.7-39.7,39.7h-27.6
	c-1.1,0-2-1-2-2.1V14.9z M387,75.2c12.8,0,22.1-10.1,22.1-23c0-12.8-9.3-22.8-22.1-22.8h-10.9v45.8H387z"/>
<path class="st1" d="M489.3,14.9c0-1.1,1-2.1,2.1-2.1H505c1.1,0,2.1,1,2.1,2.1v74.9c0,1.1-1,2.1-2.1,2.1h-13.6c-1.1,0-2.1-1-2.1-2.1
	V14.9z"/>
<path class="st1" d="M537.8,13.7c0-1.1,1-2,2.1-2h2.8L587.9,55h0.1V14.9c0-1.1,0.9-2.1,2.1-2.1h13.6c1.1,0,2.1,1,2.1,2.1V91
	c0,1.1-1,2-2.1,2h-1.8c-0.3,0-1.2-0.3-1.5-0.6l-44.7-44.9h-0.1v42.2c0,1.1-0.9,2.1-2.1,2.1h-13.5c-1.1,0-2.1-1-2.1-2.1L537.8,13.7z"
	/>
<path class="st1" d="M708,11.6c11.3,0,19.7,3.5,27.4,10.5c1,0.9,1,2.3,0.1,3.2l-8.8,9.2c-0.8,0.8-2,0.8-2.8,0
	c-4.2-3.7-9.7-5.8-15.3-5.8c-12.8,0-22.2,10.6-22.2,23.3c0,12.6,9.5,23,22.3,23c5.3,0,11.1-1.9,15.2-5.4c0.8-0.7,2.3-0.7,2.9,0.1
	l8.8,9.4c0.8,0.8,0.7,2.3-0.1,3.1c-7.7,7.5-17.4,11-27.5,11c-22.6,0-40.8-18-40.8-40.6C667.2,29.8,685.4,11.6,708,11.6z"/>
<path class="st1" d="M759.3,14.9c0-1.1,1-2.1,2.1-2.1h13.9c1.2,0,2.1,1,2.1,2.1v45.8c0,7.9,5.9,14.2,13.9,14.2
	c8.1,0,14.1-6.3,14.1-14.2V14.9c0-1.1,0.9-2.1,2.1-2.1h13.9c1.1,0,2.1,1,2.1,2.1v46.7c0,17.2-14.5,31.4-32.3,31.4
	c-17.8,0-32.1-14.2-32.1-31.4V14.9z"/>
<path class="st1" d="M853.2,14.9c0-1.1,0.9-2.1,2.1-2.1h26.4c13.3,0,24.3,9.2,24.3,21c0,8.7-7.8,15-13.1,17.9
	c6,2.5,15.2,8,15.2,18.4c0,12.7-11.2,21.8-24.7,21.8h-28c-1.2,0-2.1-1-2.1-2.1V14.9z M879.7,44.9c4.3,0,7.9-3.6,7.9-8.1
	c0-4.5-3.6-7.7-7.9-7.7h-8.8v15.8H879.7z M881.2,75.7c4.4,0,8.1-3.6,8.1-8.3c0-4.5-4.9-7.9-9.3-7.9h-9.2v16.2H881.2z"/>
<path class="st1" d="M933.8,14.9c0-1.1,0.9-2.1,2.1-2.1h46.8c1.2,0,2.1,1,2.1,2.1v12.3c0,1.1-0.9,2.1-2.1,2.1h-31.3v14h25.8
	c1.1,0,2.1,1,2.1,2.1v12.3c0,1.2-1,2.1-2.1,2.1h-25.8v15.3h31.3c1.2,0,2.1,1,2.1,2.1v12.3c0,1.1-0.9,2.1-2.1,2.1h-46.8
	c-1.2,0-2.1-1-2.1-2.1V14.9z"/>
</svg>
